<?xml version="1.0" encoding="UTF-8" standalone="no"?>
<!DOCTYPE svg PUBLIC "-//W3C//DTD SVG 1.1//EN" "http://www.w3.org/Graphics/SVG/1.1/DTD/svg11.dtd">
<svg width="100%" height="100%" viewBox="0 0 1200 1200" version="1.1" xmlns="http://www.w3.org/2000/svg" xmlns:xlink="http://www.w3.org/1999/xlink" xml:space="preserve" xmlns:serif="http://www.serif.com/" style="fill-rule:evenodd;clip-rule:evenodd;stroke-linejoin:round;stroke-miterlimit:2;">
    <g id="Background" transform="matrix(1.3913,0,0,1.3913,-234.783,-234.783)">
        <rect x="168.75" y="168.75" width="862.5" height="862.5" style="fill:rgb(141,203,141);"/>
    </g>
    <g id="Outline" transform="matrix(1.3913,0,0,1.3913,-234.783,-234.783)">
        <path d="M599.71,266.75C605.007,266.676 610.105,268.75 613.847,272.496L710.894,369.504L724.738,355.66C743.218,337.18 768.914,329.109 794.062,329.109C819.21,329.109 844.906,337.179 863.386,355.66C881.866,374.14 889.902,399.801 889.902,424.945C889.902,450.093 881.871,475.789 863.386,494.269L849.507,508.148L946.515,605.156L946.511,605.164C950.187,608.84 952.253,613.824 952.253,619.023C952.253,624.222 950.187,629.211 946.511,632.886L613.851,965.546C610.175,969.21 605.199,971.269 600.007,971.269C594.815,971.269 589.839,969.21 586.163,965.546L475.273,854.656L475.273,854.66C471.597,850.984 469.531,845.996 469.531,840.797C469.531,835.598 471.597,830.613 475.273,826.938L502.996,799.215C512.238,789.973 518.047,774.047 518.047,757.613C518.047,741.179 512.235,725.289 502.996,716.047C493.754,706.805 477.828,700.996 461.394,700.996C444.96,700.996 429.035,706.808 419.792,716.047L392.069,743.77C388.393,747.446 383.405,749.512 378.206,749.512C373.007,749.512 368.022,747.446 364.347,743.77L253.497,632.88L253.497,632.884C249.821,629.208 247.755,624.22 247.755,619.021C247.755,613.822 249.821,608.837 253.497,605.162L350.505,508.154L336.626,494.275C318.146,475.795 310.114,450.099 310.114,424.951C310.114,399.803 318.145,374.146 336.626,355.666C355.106,337.186 380.802,329.115 405.95,329.115C431.098,329.115 456.794,337.185 475.274,355.666L489.118,369.51L586.165,272.502L586.161,272.494C589.759,268.892 594.618,266.83 599.712,266.748L599.71,266.75Z"/>
    </g>
    <g id="Body" transform="matrix(1.3913,0,0,1.3913,-234.783,-234.783)">
        <path d="M600.003,314.098L502.995,411.11C499.315,414.786 494.331,416.848 489.132,416.848C483.933,416.848 478.948,414.786 475.273,411.11L447.55,383.387C438.308,374.145 422.382,368.336 405.948,368.336C389.514,368.336 373.589,374.149 364.346,383.387C355.104,392.629 349.295,408.516 349.295,424.953C349.295,441.387 355.104,457.351 364.346,466.59L392.069,494.274C395.745,497.954 397.807,502.938 397.807,508.137C397.807,513.336 395.745,518.321 392.069,521.996L295.061,619.043L378.229,702.172L392.073,688.328C410.553,669.848 436.249,661.777 461.397,661.777C486.545,661.777 512.241,669.847 530.721,688.328C549.201,706.809 557.237,732.469 557.237,757.613C557.237,782.761 549.206,808.457 530.721,826.937L516.834,840.82L600.002,923.988L904.952,619.038L807.94,521.991C804.264,518.315 802.202,513.331 802.202,508.132C802.202,502.933 804.264,497.948 807.94,494.269L835.663,466.585C844.905,457.343 850.714,441.382 850.714,424.948C850.714,408.514 844.901,392.624 835.663,383.382C826.421,374.14 810.495,368.331 794.061,368.331C777.627,368.331 761.702,374.144 752.459,383.382L724.736,411.105C721.06,414.781 716.076,416.843 710.877,416.843C705.678,416.843 700.693,414.781 697.014,411.105L600.003,314.098Z" style="fill:rgb(233,82,7);"/>
    </g>
    <g id="Light" transform="matrix(1.3913,0,0,1.3913,-234.783,-234.783)">
        <path d="M833.04,600.804L834.853,600.662L834.853,600.662C839.919,600.513 844.83,602.42 848.466,605.947C852.103,609.478 854.153,614.33 854.157,619.396C854.157,624.466 852.11,629.318 848.474,632.849L691.664,789.659L691.668,789.659C688.175,793.296 683.371,795.374 678.332,795.425C673.293,795.476 668.445,793.495 664.879,789.933C661.316,786.37 659.336,781.522 659.39,776.484C659.441,771.444 661.519,766.636 665.152,763.148L821.962,606.338C824.932,603.278 828.845,601.338 833.04,600.804Z" style="fill:white;"/>
    </g>
</svg>
